<mxfile host="app.diagrams.net" agent="Mozilla/5.0 (Windows NT 10.0; Win64; x64) AppleWebKit/537.36 (KHTML, like Gecko) Chrome/129.0.0.0 Safari/537.36" version="24.8.0">
  <diagram name="Page-1" id="Yh5zAY9FmZAimiz2iTVx">
    <mxGraphModel dx="2250" dy="1924" grid="1" gridSize="10" guides="1" tooltips="1" connect="1" arrows="1" fold="1" page="1" pageScale="1" pageWidth="850" pageHeight="1100" math="0" shadow="0">
      <root>
        <mxCell id="0" />
        <mxCell id="1" parent="0" />
        <mxCell id="OoqNGP2AAnqTNEXj8jfM-65" value="" style="rounded=0;whiteSpace=wrap;html=1;" vertex="1" parent="1">
          <mxGeometry x="950" y="-90" width="120" height="60" as="geometry" />
        </mxCell>
        <mxCell id="OoqNGP2AAnqTNEXj8jfM-64" value="" style="rounded=0;whiteSpace=wrap;html=1;" vertex="1" parent="1">
          <mxGeometry x="940" y="-80" width="150" height="320" as="geometry" />
        </mxCell>
        <mxCell id="OoqNGP2AAnqTNEXj8jfM-21" value="" style="rounded=0;whiteSpace=wrap;html=1;" vertex="1" parent="1">
          <mxGeometry x="-40" y="-170" width="1140" height="630" as="geometry" />
        </mxCell>
        <mxCell id="OoqNGP2AAnqTNEXj8jfM-1" value="pra-pmt-lambdaApp service" style="whiteSpace=wrap;html=1;aspect=fixed;" vertex="1" parent="1">
          <mxGeometry x="310" y="110" width="100" height="100" as="geometry" />
        </mxCell>
        <mxCell id="OoqNGP2AAnqTNEXj8jfM-4" value="positionservice" style="whiteSpace=wrap;html=1;aspect=fixed;" vertex="1" parent="1">
          <mxGeometry x="690" y="220" width="100" height="100" as="geometry" />
        </mxCell>
        <mxCell id="OoqNGP2AAnqTNEXj8jfM-5" value="" style="endArrow=classic;html=1;rounded=0;entryX=0;entryY=0.5;entryDx=0;entryDy=0;" edge="1" parent="1" target="OoqNGP2AAnqTNEXj8jfM-4">
          <mxGeometry width="50" height="50" relative="1" as="geometry">
            <mxPoint x="410" y="200" as="sourcePoint" />
            <mxPoint x="480" y="130" as="targetPoint" />
          </mxGeometry>
        </mxCell>
        <mxCell id="OoqNGP2AAnqTNEXj8jfM-7" value="Lmabda envent bridge" style="ellipse;whiteSpace=wrap;html=1;aspect=fixed;" vertex="1" parent="1">
          <mxGeometry x="40" y="150" width="80" height="80" as="geometry" />
        </mxCell>
        <mxCell id="OoqNGP2AAnqTNEXj8jfM-8" value="" style="endArrow=classic;html=1;rounded=0;entryX=0.036;entryY=0.856;entryDx=0;entryDy=0;exitX=1;exitY=0.5;exitDx=0;exitDy=0;entryPerimeter=0;" edge="1" parent="1" source="OoqNGP2AAnqTNEXj8jfM-7" target="OoqNGP2AAnqTNEXj8jfM-1">
          <mxGeometry width="50" height="50" relative="1" as="geometry">
            <mxPoint x="270" y="100" as="sourcePoint" />
            <mxPoint x="320" y="50" as="targetPoint" />
          </mxGeometry>
        </mxCell>
        <mxCell id="OoqNGP2AAnqTNEXj8jfM-9" value="vehicle service" style="whiteSpace=wrap;html=1;aspect=fixed;" vertex="1" parent="1">
          <mxGeometry x="320" y="320" width="80" height="80" as="geometry" />
        </mxCell>
        <mxCell id="OoqNGP2AAnqTNEXj8jfM-10" value="" style="endArrow=classic;html=1;rounded=0;entryX=0.5;entryY=0;entryDx=0;entryDy=0;exitX=0.5;exitY=1;exitDx=0;exitDy=0;" edge="1" parent="1" source="OoqNGP2AAnqTNEXj8jfM-1" target="OoqNGP2AAnqTNEXj8jfM-9">
          <mxGeometry width="50" height="50" relative="1" as="geometry">
            <mxPoint x="240" y="300" as="sourcePoint" />
            <mxPoint x="290" y="250" as="targetPoint" />
          </mxGeometry>
        </mxCell>
        <mxCell id="OoqNGP2AAnqTNEXj8jfM-13" value="" style="endArrow=classic;html=1;rounded=0;" edge="1" parent="1">
          <mxGeometry width="50" height="50" relative="1" as="geometry">
            <mxPoint x="359.5" y="110" as="sourcePoint" />
            <mxPoint x="359.5" y="20" as="targetPoint" />
          </mxGeometry>
        </mxCell>
        <mxCell id="OoqNGP2AAnqTNEXj8jfM-17" value="get positions" style="text;html=1;align=center;verticalAlign=middle;whiteSpace=wrap;rounded=0;" vertex="1" parent="1">
          <mxGeometry x="460" y="170" width="60" height="30" as="geometry" />
        </mxCell>
        <mxCell id="OoqNGP2AAnqTNEXj8jfM-18" value="asset class classifications" style="text;html=1;align=center;verticalAlign=middle;whiteSpace=wrap;rounded=0;" vertex="1" parent="1">
          <mxGeometry x="370" y="250" width="60" height="30" as="geometry" />
        </mxCell>
        <mxCell id="OoqNGP2AAnqTNEXj8jfM-27" value="Aurora" style="shape=cylinder3;whiteSpace=wrap;html=1;boundedLbl=1;backgroundOutline=1;size=15;" vertex="1" parent="1">
          <mxGeometry x="710" y="90" width="90" height="110" as="geometry" />
        </mxCell>
        <mxCell id="OoqNGP2AAnqTNEXj8jfM-28" value="S3" style="whiteSpace=wrap;html=1;aspect=fixed;" vertex="1" parent="1">
          <mxGeometry x="710" y="-20" width="80" height="80" as="geometry" />
        </mxCell>
        <mxCell id="OoqNGP2AAnqTNEXj8jfM-41" value="" style="endArrow=classic;html=1;rounded=0;entryX=0;entryY=0;entryDx=0;entryDy=52.5;entryPerimeter=0;" edge="1" parent="1" target="OoqNGP2AAnqTNEXj8jfM-27">
          <mxGeometry width="50" height="50" relative="1" as="geometry">
            <mxPoint x="410" y="160" as="sourcePoint" />
            <mxPoint x="460" y="110" as="targetPoint" />
          </mxGeometry>
        </mxCell>
        <mxCell id="OoqNGP2AAnqTNEXj8jfM-43" value="CsvFileUploader" style="rounded=0;whiteSpace=wrap;html=1;" vertex="1" parent="1">
          <mxGeometry x="300" y="-70" width="120" height="90" as="geometry" />
        </mxCell>
        <mxCell id="OoqNGP2AAnqTNEXj8jfM-44" value="" style="rounded=0;whiteSpace=wrap;html=1;" vertex="1" parent="1">
          <mxGeometry y="-90" width="50" height="230" as="geometry" />
        </mxCell>
        <mxCell id="OoqNGP2AAnqTNEXj8jfM-45" value="" style="endArrow=classic;html=1;rounded=0;entryX=0;entryY=0.25;entryDx=0;entryDy=0;exitX=1;exitY=0.75;exitDx=0;exitDy=0;" edge="1" parent="1" source="OoqNGP2AAnqTNEXj8jfM-44" target="OoqNGP2AAnqTNEXj8jfM-1">
          <mxGeometry width="50" height="50" relative="1" as="geometry">
            <mxPoint x="-90" y="80" as="sourcePoint" />
            <mxPoint x="-40" y="30" as="targetPoint" />
          </mxGeometry>
        </mxCell>
        <mxCell id="OoqNGP2AAnqTNEXj8jfM-46" value="" style="endArrow=classic;html=1;rounded=0;entryX=0.032;entryY=0.57;entryDx=0;entryDy=0;entryPerimeter=0;" edge="1" parent="1" source="OoqNGP2AAnqTNEXj8jfM-23" target="OoqNGP2AAnqTNEXj8jfM-44">
          <mxGeometry width="50" height="50" relative="1" as="geometry">
            <mxPoint x="-220" y="40" as="sourcePoint" />
            <mxPoint x="-170" y="-10" as="targetPoint" />
          </mxGeometry>
        </mxCell>
        <mxCell id="OoqNGP2AAnqTNEXj8jfM-47" value="&lt;div&gt;&lt;br&gt;&lt;/div&gt;&lt;div&gt;&lt;br&gt;&lt;/div&gt;&lt;div&gt;&lt;br&gt;&lt;/div&gt;API&lt;div&gt;&lt;br&gt;&lt;/div&gt;&lt;div&gt;Gate&lt;/div&gt;&lt;div&gt;&lt;br&gt;&lt;/div&gt;&lt;div&gt;Way&lt;/div&gt;" style="text;html=1;align=center;verticalAlign=middle;whiteSpace=wrap;rounded=0;" vertex="1" parent="1">
          <mxGeometry x="-10" y="-50" width="60" height="80" as="geometry" />
        </mxCell>
        <mxCell id="OoqNGP2AAnqTNEXj8jfM-49" value="AWS" style="text;html=1;align=center;verticalAlign=middle;whiteSpace=wrap;rounded=0;" vertex="1" parent="1">
          <mxGeometry x="-30" y="-150" width="60" height="30" as="geometry" />
        </mxCell>
        <mxCell id="OoqNGP2AAnqTNEXj8jfM-50" value="" style="endArrow=classic;html=1;rounded=0;entryX=0;entryY=0.5;entryDx=0;entryDy=0;exitX=0.993;exitY=0.604;exitDx=0;exitDy=0;exitPerimeter=0;" edge="1" parent="1" source="OoqNGP2AAnqTNEXj8jfM-43" target="OoqNGP2AAnqTNEXj8jfM-28">
          <mxGeometry width="50" height="50" relative="1" as="geometry">
            <mxPoint x="420" y="-30" as="sourcePoint" />
            <mxPoint x="470" y="-80" as="targetPoint" />
          </mxGeometry>
        </mxCell>
        <mxCell id="OoqNGP2AAnqTNEXj8jfM-51" value="MorningStar" style="rounded=0;whiteSpace=wrap;html=1;" vertex="1" parent="1">
          <mxGeometry x="370" y="-280" width="120" height="60" as="geometry" />
        </mxCell>
        <mxCell id="OoqNGP2AAnqTNEXj8jfM-52" value="Bloomberge" style="rounded=0;whiteSpace=wrap;html=1;" vertex="1" parent="1">
          <mxGeometry x="225" y="-280" width="120" height="60" as="geometry" />
        </mxCell>
        <mxCell id="OoqNGP2AAnqTNEXj8jfM-53" value="" style="endArrow=classic;html=1;rounded=0;" edge="1" parent="1">
          <mxGeometry width="50" height="50" relative="1" as="geometry">
            <mxPoint x="320" y="-70" as="sourcePoint" />
            <mxPoint x="320" y="-220" as="targetPoint" />
          </mxGeometry>
        </mxCell>
        <mxCell id="OoqNGP2AAnqTNEXj8jfM-54" value="" style="endArrow=classic;html=1;rounded=0;" edge="1" parent="1">
          <mxGeometry width="50" height="50" relative="1" as="geometry">
            <mxPoint x="400" y="-70" as="sourcePoint" />
            <mxPoint x="400" y="-220" as="targetPoint" />
          </mxGeometry>
        </mxCell>
        <mxCell id="OoqNGP2AAnqTNEXj8jfM-55" value="" style="endArrow=classic;html=1;rounded=0;entryX=0;entryY=0;entryDx=0;entryDy=27.5;entryPerimeter=0;" edge="1" parent="1" target="OoqNGP2AAnqTNEXj8jfM-27">
          <mxGeometry width="50" height="50" relative="1" as="geometry">
            <mxPoint x="420" y="10" as="sourcePoint" />
            <mxPoint x="470" y="-40" as="targetPoint" />
          </mxGeometry>
        </mxCell>
        <mxCell id="OoqNGP2AAnqTNEXj8jfM-56" value="audit details" style="text;html=1;align=center;verticalAlign=middle;whiteSpace=wrap;rounded=0;" vertex="1" parent="1">
          <mxGeometry x="490" y="60" width="60" height="30" as="geometry" />
        </mxCell>
        <mxCell id="OoqNGP2AAnqTNEXj8jfM-66" value="" style="rounded=0;whiteSpace=wrap;html=1;" vertex="1" parent="1">
          <mxGeometry x="940" y="-120" width="150" height="400" as="geometry" />
        </mxCell>
        <mxCell id="OoqNGP2AAnqTNEXj8jfM-59" value="awS3Browser-service&lt;div&gt;Web - React&lt;/div&gt;&lt;div&gt;Rest- spring boot&lt;/div&gt;" style="rounded=0;whiteSpace=wrap;html=1;" vertex="1" parent="1">
          <mxGeometry x="960" y="-40" width="110" height="80" as="geometry" />
        </mxCell>
        <mxCell id="OoqNGP2AAnqTNEXj8jfM-61" value="" style="endArrow=classic;html=1;rounded=0;exitX=0;exitY=0.75;exitDx=0;exitDy=0;" edge="1" parent="1" source="OoqNGP2AAnqTNEXj8jfM-59">
          <mxGeometry width="50" height="50" relative="1" as="geometry">
            <mxPoint x="740" y="70" as="sourcePoint" />
            <mxPoint x="790" y="20" as="targetPoint" />
          </mxGeometry>
        </mxCell>
        <mxCell id="OoqNGP2AAnqTNEXj8jfM-62" value="read all buckets and files" style="text;html=1;align=center;verticalAlign=middle;whiteSpace=wrap;rounded=0;" vertex="1" parent="1">
          <mxGeometry x="820" y="-40" width="120" height="50" as="geometry" />
        </mxCell>
        <mxCell id="OoqNGP2AAnqTNEXj8jfM-63" value="TrDashboard&lt;div&gt;mss-pmt-streamlit&lt;/div&gt;&lt;div&gt;Python-streamlit&lt;/div&gt;" style="rounded=0;whiteSpace=wrap;html=1;" vertex="1" parent="1">
          <mxGeometry x="960" y="100" width="110" height="100" as="geometry" />
        </mxCell>
        <mxCell id="OoqNGP2AAnqTNEXj8jfM-67" value="ECS Cluster" style="text;html=1;align=center;verticalAlign=middle;whiteSpace=wrap;rounded=0;" vertex="1" parent="1">
          <mxGeometry x="950" y="-110" width="60" height="30" as="geometry" />
        </mxCell>
        <mxCell id="OoqNGP2AAnqTNEXj8jfM-68" value="" style="endArrow=classic;html=1;rounded=0;exitX=0.5;exitY=0;exitDx=0;exitDy=0;entryX=0.5;entryY=1;entryDx=0;entryDy=0;" edge="1" parent="1" source="OoqNGP2AAnqTNEXj8jfM-63" target="OoqNGP2AAnqTNEXj8jfM-59">
          <mxGeometry width="50" height="50" relative="1" as="geometry">
            <mxPoint x="970" y="90" as="sourcePoint" />
            <mxPoint x="1020" y="40" as="targetPoint" />
          </mxGeometry>
        </mxCell>
        <mxCell id="OoqNGP2AAnqTNEXj8jfM-70" value="UI for monitoring purpose accessible by all&lt;div&gt;Status date wise portfolio uploads&amp;nbsp;&lt;/div&gt;&lt;div&gt;&lt;br&gt;&lt;/div&gt;&lt;div&gt;&lt;br&gt;&lt;/div&gt;" style="ellipse;whiteSpace=wrap;html=1;" vertex="1" parent="1">
          <mxGeometry x="1160" y="70" width="240" height="165" as="geometry" />
        </mxCell>
        <mxCell id="OoqNGP2AAnqTNEXj8jfM-71" value="Listing all buckets in list&amp;nbsp;&lt;div&gt;display files in grid with all details&amp;nbsp;&lt;/div&gt;&lt;div&gt;search files&amp;nbsp;&lt;/div&gt;&lt;div&gt;download files&lt;/div&gt;&lt;div&gt;upload files&lt;/div&gt;" style="ellipse;whiteSpace=wrap;html=1;" vertex="1" parent="1">
          <mxGeometry x="1160" y="-85" width="220" height="150" as="geometry" />
        </mxCell>
        <mxCell id="OoqNGP2AAnqTNEXj8jfM-72" value="" style="endArrow=classic;html=1;rounded=0;exitX=0;exitY=0.5;exitDx=0;exitDy=0;" edge="1" parent="1" source="OoqNGP2AAnqTNEXj8jfM-70">
          <mxGeometry width="50" height="50" relative="1" as="geometry">
            <mxPoint x="1020" y="200" as="sourcePoint" />
            <mxPoint x="1070" y="150" as="targetPoint" />
          </mxGeometry>
        </mxCell>
        <mxCell id="OoqNGP2AAnqTNEXj8jfM-73" value="" style="endArrow=classic;html=1;rounded=0;exitX=0;exitY=0.5;exitDx=0;exitDy=0;" edge="1" parent="1">
          <mxGeometry width="50" height="50" relative="1" as="geometry">
            <mxPoint x="1160" y="-10.5" as="sourcePoint" />
            <mxPoint x="1070" y="-10.5" as="targetPoint" />
          </mxGeometry>
        </mxCell>
        <mxCell id="OoqNGP2AAnqTNEXj8jfM-23" value="mss-service-toolboxapp" style="ellipse;whiteSpace=wrap;html=1;aspect=fixed;" vertex="1" parent="1">
          <mxGeometry x="-180" y="-40" width="120" height="120" as="geometry" />
        </mxCell>
      </root>
    </mxGraphModel>
  </diagram>
</mxfile>
